<?xml version="1.0" encoding="utf-8"?>
<!-- Generator: Adobe Illustrator 25.2.1, SVG Export Plug-In . SVG Version: 6.00 Build 0)  -->
<svg version="1.1" id="Layer_1" xmlns="http://www.w3.org/2000/svg" xmlns:xlink="http://www.w3.org/1999/xlink" x="0px" y="0px"
	 viewBox="0 0 594.2 67.2" style="enable-background:new 0 0 594.2 67.2;" xml:space="preserve">
<style type="text/css">
	.st0{fill:#1598D5;}
	.st1{fill:#FFFFFF;}
</style>
<path class="st0" d="M83.5,17.8L83.5,17.8c-1.7,1.7-1.7,4.4,0,6l5.9,5.9c1.2,1.4,1.7,3.2,1.4,5c-0.1,0.2,0.1,0.4,0.3,0.5
	c0.1,0,0.3,0,0.4-0.1l1.7-1.7l2.2-2.2c2.2-2.2,2.2-5.6,0-7.8l-5.7-5.7C87.9,16.1,85.2,16.1,83.5,17.8L83.5,17.8z"/>
<path class="st0" d="M118.6,52.9L118.6,52.9c1.7-1.7,1.7-4.4,0-6l-5.9-5.9c-1.2-1.4-1.7-3.2-1.4-5c0-0.1,0-0.3-0.1-0.4
	c-0.2-0.2-0.4-0.2-0.6,0l0,0l-1.7,1.6l-2.2,2.2c-2.1,2.1-2.1,5.6,0,7.8l0,0l5.7,5.7C114.2,54.6,116.9,54.6,118.6,52.9z"/>
<path class="st0" d="M83.4,46.9l29.1-29.1c1.7-1.6,4.3-1.6,6,0l0,0c1.6,1.7,1.6,4.3,0,6l-29,29.1c-1.7,1.6-4.3,1.6-6,0l0,0
	C81.8,51.3,81.8,48.6,83.4,46.9L83.4,46.9z"/>
<path class="st0" d="M7.8,24.8H5c-1.9,0-3.5-1.6-3.5-3.5l0,0c0-1.9,1.6-3.5,3.5-3.5l0,0h2.8v-2.6c0-4.1,1-7.1,3-9.1s4.6-2.9,8.3-2.9
	c1.3,0,2.6,0.1,3.9,0.3c1.7,0.3,2.9,1.7,2.9,3.4l0,0c0,1.9-1.6,3.5-3.5,3.5c-0.1,0-0.2,0-0.3,0c-0.4,0-0.8,0-1.1,0
	c-3.2,0-4.9,1.7-4.9,5.6v2h6.2c1.9,0,3.5,1.5,3.5,3.4l0,0l0,0c0,1.9-1.6,3.5-3.5,3.5h-6.1V50c0,2.3-1.9,4.2-4.2,4.2l0,0l0,0
	c-2.3,0-4.2-1.9-4.2-4.2C7.8,50,7.8,24.8,7.8,24.8z"/>
<path class="st0" d="M34.6,3.6L34.6,3.6c2.3,0,4.2,1.9,4.2,4.2V50c0,2.3-1.9,4.2-4.2,4.2l0,0c-2.3,0-4.2-1.9-4.2-4.2V7.8
	C30.5,5.5,32.3,3.6,34.6,3.6z"/>
<path class="st0" d="M45.3,35.2v-0.5c0-11.4,10.3-20.5,21.5-18.4c9.2,1.7,13.9,10,13.9,19.4l0,0c0,1.3-1.1,2.3-2.4,2.3H54.1
	c-0.2,0-0.4,0.2-0.4,0.4c0,0,0,0,0,0.1c1,5.7,5.2,8.9,10.5,8.9c2.8,0.1,5.6-0.8,7.8-2.5c1.3-1,3.1-0.9,4.3,0.1l0,0
	c1.4,1.2,1.6,3.4,0.4,4.8c-0.1,0.1-0.2,0.2-0.4,0.4c-3.5,2.8-7.9,4.3-12.3,4.1C53.4,54.2,45.3,46.5,45.3,35.2z M72,32.5
	c0.2,0,0.4-0.2,0.4-0.4c0,0,0,0,0-0.1c-0.7-5.2-3.8-9.2-9.2-9.2c-5,0-8.5,3.8-9.4,9.2c0,0.2,0.1,0.4,0.3,0.4c0,0,0,0,0.1,0L72,32.5z
	"/>
<path class="st0" d="M123.5,51.5c0-0.5,0.1-1,0.4-1.4c0.2-0.4,0.6-0.8,1-1s0.9-0.4,1.4-0.4s1,0.1,1.4,0.4c0.9,0.5,1.4,1.4,1.4,2.4
	c0,0.5-0.1,1-0.4,1.4c-0.2,0.4-0.6,0.8-1,1c-0.9,0.5-2,0.5-2.8,0C124,53.4,123.5,52.5,123.5,51.5L123.5,51.5z M128.7,51.5
	c0-0.4-0.1-0.8-0.3-1.2s-0.5-0.7-0.9-0.9s-0.8-0.3-1.2-0.3c-0.4,0-0.8,0.1-1.2,0.3c-0.7,0.4-1.2,1.2-1.2,2.1c0,0.4,0.1,0.8,0.3,1.2
	c0.2,0.4,0.5,0.7,0.9,0.9s0.8,0.3,1.2,0.3c0.4,0,0.8-0.1,1.2-0.3c0.4-0.2,0.7-0.5,0.9-0.9C128.6,52.4,128.7,52,128.7,51.5
	L128.7,51.5z M127.1,52.6c0-0.2,0-0.4-0.1-0.5c0-0.1-0.1-0.2-0.3-0.2c-0.2,0-0.3-0.1-0.5-0.1h-0.8v1.4H125V50h1.4
	c0.3,0,0.6,0.1,0.8,0.2c0.2,0.2,0.3,0.4,0.3,0.7c0,0.2,0,0.4-0.2,0.5c-0.1,0.1-0.3,0.2-0.4,0.3l0,0c0.2,0,0.3,0.1,0.4,0.3
	s0.1,0.4,0.1,0.6c0,0.2,0,0.4,0.1,0.6h-0.4c0-0.1-0.1-0.1-0.1-0.2C127.1,52.9,127.1,52.8,127.1,52.6z M127.1,50.8
	c0-0.3-0.3-0.5-0.8-0.5h-0.9v1.1h0.9c0.2,0,0.4,0,0.6-0.2C127.1,51.2,127.2,51,127.1,50.8L127.1,50.8z"/>
<g>
	<path class="st1" d="M153.7,48.2h4.3V20.7h-4.3v-5.5h15.8v5.5h-4.3v27.6h4.3v5.5h-15.8V48.2z"/>
	<path class="st1" d="M177.4,21.7h-6.5v-6.5h20.3v6.5h-6.6v32h-7.1V21.7z"/>
	<path class="st1" d="M201.1,49v-6.9h7.1v4.1l1.6,1.6h2.6l1.6-1.6v-7.5l-1.2-1.2h-7.5l-4-4V19.9l4.7-4.7h10.5l4.7,4.7v6.9H214v-4
		l-1.6-1.6h-2.3l-1.6,1.6v7.1l1.2,1.2h7.6l4,4v14l-4.7,4.7h-10.7L201.1,49z"/>
	<path class="st1" d="M224.5,49.4V29.8l4.3-4.3h9.8l4.3,4.3v11.6h-11.6V48l1.1,1.1h2.5L236,48v-3.1h6.8v4.6l-4.3,4.3h-9.8
		L224.5,49.4z M236,36.9v-5.6l-1.1-1.1h-2.5l-1.1,1.1v5.6H236z"/>
	<path class="st1" d="M246.2,49.4V29.8l4.3-4.3h9.4l4.2,4.3v5.5h-6.8v-3.9l-1.1-1.1h-2.2l-1.1,1.1v16.4l1.1,1.1h2.2l1.1-1.1v-3.9
		h6.8v5.5l-4.3,4.3h-9.3L246.2,49.4z"/>
	<path class="st1" d="M267.3,49.4V25.5h6.8v21.4l1.1,1.1h0.8l2.7-2.7V25.5h6.8v28.2h-5l-0.4-3.9l-3.9,3.9h-4.8L267.3,49.4z"/>
	<path class="st1" d="M289.8,25.5h5l0.4,4l4-4h3.7V32h-3.5l-2.7,2.7v19h-6.8V25.5z"/>
	<path class="st1" d="M306.1,15.4h6.8v6.8h-6.8V15.4z M306.1,53.7V25.5h6.8v28.2H306.1z"/>
	<path class="st1" d="M318.8,49.4V30.9h-2.9v-5.5h2.9v-7.1h6.8v7.1h4.8v5.5h-4.8v15.9l1.1,1h3.7v5.9h-7.4L318.8,49.4z"/>
	<path class="st1" d="M331.8,25.5h6.8l3,23.9l3-23.9h6.5l-6,34.1l-3.6,3.6h-8.6v-5.6h5.5l1.5-1.4l0.5-2.5h-3.6L331.8,25.5z"/>
	<path class="st1" d="M366.1,15.2h10.5l5.9,38.5h-7.1l-1.1-8.9h-6.2l-1.1,8.9h-6.8L366.1,15.2z M368.8,38.9h4.7l-2.3-19.1
		L368.8,38.9z"/>
	<path class="st1" d="M384.1,49.5v-4.4h6.8v2.7l1,1h2.5l1.1-1.1v-4.9l-0.8-0.8h-7l-3.2-3.2v-9.1l4.3-4.3h9.3l4.2,4.2V34h-6.8v-2.7
		l-1-1h-2l-1.1,1.1v4.9l0.8,0.8h7l3.2,3.2v9.1l-4.2,4.3h-9.7L384.1,49.5z"/>
	<path class="st1" d="M405.1,49.5v-4.4h6.8v2.7l1,1h2.5l1.1-1.1v-4.9l-0.8-0.8h-7l-3.2-3.2v-9.1l4.3-4.3h9.3l4.2,4.2V34h-6.8v-2.7
		l-1-1h-2l-1.1,1.1v4.9l0.8,0.8h7l3.2,3.2v9.1l-4.2,4.3h-9.7L405.1,49.5z"/>
	<path class="st1" d="M426.4,49.4V29.8l4.3-4.3h9.8l4.3,4.3v11.6h-11.6V48l1.1,1.1h2.5L438,48v-3.1h6.8v4.6l-4.3,4.3h-9.8
		L426.4,49.4z M438,36.9v-5.6l-1.1-1.1h-2.5l-1.1,1.1v5.6H438z"/>
	<path class="st1" d="M447.9,49.5v-4.4h6.8v2.7l1,1h2.5l1.1-1.1v-4.9l-0.8-0.8h-7l-3.2-3.2v-9.1l4.3-4.3h9.3l4.2,4.2V34h-6.8v-2.7
		l-1-1h-2l-1.1,1.1v4.9l0.8,0.8h7l3.2,3.2v9.1l-4.2,4.3h-9.7L447.9,49.5z"/>
	<path class="st1" d="M469,49.5v-4.4h6.8v2.7l1,1h2.5l1.1-1.1v-4.9l-0.8-0.8h-7l-3.2-3.2v-9.1l4.3-4.3h9.3l4.2,4.2V34h-6.8v-2.7
		l-1-1h-2l-1.1,1.1v4.9l0.8,0.8h7l3.2,3.2v9.1l-4.2,4.3h-9.7L469,49.5z"/>
	<path class="st1" d="M490.7,25.5h5l0.4,4l3.9-4h4.5l3.3,3.3l3.3-3.3h4.7l4.2,4.3v23.9h-6.8V32.4l-1.1-1.1h-0.9l-2.5,2.5v19.9H502
		V32.4l-1.1-1.1h-0.7l-2.7,2.7v19.7h-6.8V25.5z"/>
	<path class="st1" d="M523.8,49.4V29.8l4.3-4.3h9.8l4.3,4.3v11.6h-11.6V48l1.1,1.1h2.5l1.1-1.1v-3.1h6.8v4.6l-4.3,4.3h-9.8
		L523.8,49.4z M535.3,36.9v-5.6l-1.1-1.1h-2.5l-1.1,1.1v5.6H535.3z"/>
	<path class="st1" d="M545.9,25.5h5l0.4,4l3.9-4h4.7l4.3,4.3v23.9h-6.8V32.4l-1.1-1.1h-0.8l-2.7,2.7v19.7h-6.8V25.5z"/>
	<path class="st1" d="M569.5,49.4V30.9h-2.9v-5.5h2.9v-7.1h6.8v7.1h4.8v5.5h-4.8v15.9l1.1,1h3.7v5.9h-7.4L569.5,49.4z"/>
</g>
</svg>
