<?xml version="1.0" encoding="utf-8"?>
<!-- Generator: Adobe Illustrator 25.2.0, SVG Export Plug-In . SVG Version: 6.00 Build 0)  -->
<svg version="1.1" id="Layer_1" xmlns="http://www.w3.org/2000/svg" xmlns:xlink="http://www.w3.org/1999/xlink" x="0px" y="0px"
	 viewBox="0 0 64 64" style="enable-background:new 0 0 64 64;" xml:space="preserve">
<style type="text/css">
	.st0{fill:#009ADD;}
</style>
<path class="st0" d="M51.8,28.5c-0.9,0-1.8,0.1-2.7,0.3c0-0.1,0-0.1,0-0.1c0-9.7-7.8-17.7-17.5-17.7c-8.3,0-15.4,5.9-17.1,14.1
	c-0.2,0-0.4,0-0.6,0C6.2,25,0,31.4,0,39.1C0,46.8,6.1,53,13.6,53.2h13.1v-1.7v-8h-4.9c-0.5,0-0.9-0.3-1.1-0.7
	c-0.2-0.4-0.2-0.9,0.1-1.3L31,26.7c0.2-0.4,0.6-0.6,1-0.6c0.4,0,0.8,0.2,1,0.6l10.2,14.8c0.1,0.2,0.2,0.5,0.2,0.7s-0.1,0.4-0.1,0.6
	c-0.2,0.4-0.6,0.7-1.1,0.7h-4.7v8v1.7h14.6c6.4-0.1,11.6-5.2,12.1-11.6v-1.5C63.6,33.6,58.3,28.5,51.8,28.5z"/>
</svg>
