<?xml version="1.0" encoding="utf-8"?>
<!-- Generator: Adobe Illustrator 25.2.0, SVG Export Plug-In . SVG Version: 6.00 Build 0)  -->
<svg version="1.1" id="Layer_1" xmlns="http://www.w3.org/2000/svg" xmlns:xlink="http://www.w3.org/1999/xlink" x="0px" y="0px"
	 viewBox="0 0 64 64" style="enable-background:new 0 0 64 64;" xml:space="preserve">
<style type="text/css">
	.st0{fill:#009ADD;}
</style>
<path class="st0" d="M32.1,34.4L57.4,9c0.3-0.3,0.6-0.5,1-0.6c0.4-0.1,0.7-0.2,1.1-0.2c1.6,0,2.9,1.3,3,3c0,0.4-0.1,0.8-0.2,1.2
	c-0.1,0.4-0.4,0.7-0.6,0.9L34.1,40.7c-0.2,0.3-0.5,0.5-0.9,0.6c-0.4,0.1-0.8,0.2-1.2,0.2c-0.4,0-0.8-0.1-1.1-0.2
	c-0.4-0.1-0.7-0.4-1-0.6l-11.8-12c-0.3-0.2-0.5-0.5-0.6-0.9c-0.2-0.4-0.2-0.8-0.2-1.2c0.1-1.6,1.3-2.9,3-3c0.4,0,0.8,0.1,1.1,0.3
	c0.3,0.2,0.6,0.4,1,0.6L32.1,34.4z M56.4,24.4c4.4,13.5-2.9,28-16.4,32.4s-28-2.9-32.4-16.4s2.9-28,16.4-32.4
	c7.6-2.5,16-1.3,22.6,3.3l4.7-4.7C37.1-4,17-1.1,6.4,13.1s-7.7,34.3,6.5,44.9s34.3,7.7,44.9-6.5c6.9-9.3,8.3-21.6,3.7-32.2
	L56.4,24.4z"/>
</svg>
