<?xml version="1.0" encoding="utf-8"?>
<!-- Generator: Adobe Illustrator 25.2.0, SVG Export Plug-In . SVG Version: 6.00 Build 0)  -->
<svg version="1.1" id="Layer_1" xmlns="http://www.w3.org/2000/svg" xmlns:xlink="http://www.w3.org/1999/xlink" x="0px" y="0px"
	 viewBox="0 0 64 64" style="enable-background:new 0 0 64 64;" xml:space="preserve">
<style type="text/css">
	.st0{fill:#006F2A;}
</style>
<path class="st0" d="M36.6,53.2V2h-4.1C21.8,3.9,11.2,5.7,0.6,7.6V56c10.5,1.9,21.1,3.7,31.6,5.6h4.3L36.6,53.2L36.6,53.2z
	 M20.9,42.6c-1.3-2.8-2.5-5.7-3.5-8.7c-1,2.8-2.3,5.5-3.4,8.2c-1.5,0-3-0.1-4.5-0.1c1.8-3.5,3.5-7,5.3-10.4
	c-1.6-3.6-3.3-7.1-4.9-10.6l4.6-0.3c1,2.7,2.2,5.4,3,8.2c1-2.9,2.3-5.8,3.4-8.6c1.6-0.1,3.1-0.2,4.7-0.3c-1.8,3.8-3.7,7.6-5.6,11.4
	c1.9,3.8,3.8,7.7,5.8,11.6C24.3,42.8,22.6,42.7,20.9,42.6z"/>
<path class="st0" d="M38.3,8.7v3.7h7.3v5.4h-7.3v3h7.3v5.4h-7.3v3h7.3v5.4h-7.3v3h7.3v5.4h-7.3V46h7.3v5.2h-7.3v3.7h25.3V8.7H38.3z
	 M58,51.3H47.4v-5.2H58V51.3z M58,42.9H47.4v-5.4H58V42.9z M58,34.5H47.4v-5.4H58V34.5z M58,26.1H47.4v-5.4H58V26.1z M58,17.7H47.4
	v-5.4H58V17.7z"/>
</svg>
