<?xml version="1.0" encoding="utf-8"?>
<!-- Generator: Adobe Illustrator 25.2.1, SVG Export Plug-In . SVG Version: 6.00 Build 0)  -->
<svg version="1.1" id="Layer_1" xmlns="http://www.w3.org/2000/svg" xmlns:xlink="http://www.w3.org/1999/xlink" x="0px" y="0px"
	 viewBox="0 0 3238.7 569.4" style="enable-background:new 0 0 3238.7 569.4;" xml:space="preserve">
<style type="text/css">
	.st0{fill:none;stroke:#FFFFFF;stroke-width:3;stroke-linecap:round;stroke-linejoin:round;}
	.st1{fill:none;stroke:#FFFFFF;stroke-width:3;stroke-linecap:round;stroke-miterlimit:10;stroke-dasharray:0,15;}
</style>
<g id="Layer_2_1_">
	<g id="Layer_1-2">
		<path class="st0" d="M132,77.1c120.4,8.8,163.6-25.1,256.1-17.8c32.4,2.5,74.1,9.7,121.9,27.4c189.2,69.7,213.8-34.4,344.2-47.6
			c102.1-3.2,177.8,62.6,242.4,58.9c145.6,11.7,196.1-188.2,380.2-44.2c14.4,11.3,30.2,20.6,47.2,27.4c8.1,3.2,16.5,5.9,25,8.1
			c33.7,8.4,76,8.8,123.6-12.9c12-5.5,23.4-12.4,33.9-20.5c229.6-175,232,142,497.9,8.1c17.8-9.1,36.7-15.9,56.3-20.4
			c13.6-3,27.4-4.9,41.3-5.6c185-3.2,134.3,138,456.2,22.7c136.2-34.7,243.7,39,345.2,12"/>
		<path class="st0" d="M3064.7,109.4c-100.2,5.8-141.1-27.4-223.7-27.4c-143.8-2.3-168.5,88.5-318.9,55
			c-82.8-25.5-80.9-50.9-151.4-70.3c-56.9-17.1-99.9-3.5-124.5,12.2c-5,3.2-10,6.3-15.1,9.2c-75.4,43.2-171.4,84-245.4,17.7
			c-9.9-8.9-20.3-17.2-31.1-25c-84.6-61.6-120-76.5-183.9-33.8c-86.2,66.7-107.4,106.1-157,115c-18.5,3.2-37.5,1.4-55.1-5.2
			c-44.2-16.1-82.7-53.5-117.5-89c-10.8-11.1-23.1-20.7-36.5-28.4c-151.9-87.2-189.2,210.7-440.4,54.8C894.4,51.1,840.8,60.8,817,70
			c-66.3,20.4-79.5,45.6-145.8,69.7C527.8,180.8,489,82.5,356.8,87.6C269.6,91,240.6,115.4,120,114.9"/>
		<path class="st0" d="M108.6,153.4c114.5,0,157.8-34.5,228.9-39.2c180.6-5.8,202.4,169.1,434.7-0.2c45.2-30.9,98.1-33.1,126.9-21.6
			c93.5,35.4,93.6,75.9,171.4,90.7c145.9,29.3,220.3-222.1,339.7-113.1c65.3,60.8,86.9,131.4,149.1,155.2c26.3,10.2,55.8,8,80.3-6
			c51.8-30,85.5-100,126.9-142.8c149.7-154,209.7,240.2,446.7,55.3c27-19.3,24-19.1,65.3-40.7c32.8-17.2,69.7-10.8,94.9-0.2
			c12,5,23.7,10.7,35.2,16.9c47.8,26.1,40.2,31.1,83.9,51.7c187.2,90,224.9-107.7,437.3-32.8c29.5,8.8,99.2,27.3,146.5,21.3"/>
		<path class="st0" d="M3087.7,186.5c-78.8,6.8-194.3-55.5-258.7-49.7c-66.4-0.5-122.6,53.1-166.2,69.2
			c-154.2,60.4-207.6-75.1-309.2-97.5c-28.2-6.6-49.6-6.8-86.4,14.8c-13.4,7.9-25.8,17.4-37,28.1C2074.3,300,2030.5,204,1893.9,87.3
			c-72.2-56.6-116.3-18.1-192,121.4c-14.1,27.1-32.6,53.2-53.1,70.6c-24.8,21-60,24.6-88.6,9.2c-71.3-37.9-103.7-135.2-150.4-191.1
			c-47.1-60.9-93.3-45.7-169.8,28.1c-74.1,96.7-156.2,156.7-256.5,51.3c-24.3-25.5-45.4-44.2-72.6-55.8
			c-46.8-19.8-71.7-8.8-96.6-1.3c-56.1,19.6-130.5,84.2-143.2,88.1c-141.6,67.6-207.8-66-313.5-64.8c-94.5,1-165.5,50.8-259.6,49.8"
			/>
		<path class="st0" d="M85.9,230.6c139.7,0.4,235.3-114.5,354.5-32.8c26.8,17.5,46.9,46,116.2,64.4
			c142.8,31.3,226-187.2,345.1-117.6c73.1,49.3,70.5,74.5,120.5,104.9c194,136.8,274.5-389.2,433.1-53.1
			c17.6,39.2,75.6,145.2,137.6,144.3c3.1-0.1,6.2-0.5,9.2-1.3c86-22,126.5-165.6,179.5-226.5c134.8-155.4,215.4,300.8,415,109.4
			c44.9-46.4,28.2-37.6,69.8-68.7c41-30.6,73.2-27.8,96.4-19.6c50.8,17.9,128,90.8,142.2,96c176.9,105.4,222.4-95.2,359.6-62
			c88.4,11.1,150.9,67.7,235.3,57.8"/>
		<path class="st0" d="M3110.7,265c-155.9-6.8-235.5-133.3-364.7-35c-28.5,22.3-32.9,39.6-93.4,63.4
			c-150.3,52.5-247.4-201.1-357-130.9c-71.2,47.6-89.4,106.3-139.7,132.2c-164,110-247.9-313.8-369.9-161.5
			c-57.9,71.3-90.5,183.1-148.7,225.3c-25.6,18.6-60.2,18.4-86.1,0.2c-62.1-43.8-99.5-157.1-140.8-213.7
			c-131.9-187.3-223.1,303.5-407.6,134.3c-64-58.6-56.8-76.6-99.3-106.9C767.2,78.2,683.2,377.5,506,285.3
			c-14.1-7.4-27.1-16.7-38.7-27.6c-163.5-151.2-233.6,20.8-392.7,11.4"/>
		<path class="st0" d="M65.4,303.2c122-3.7,135.6-52.9,243.7-72.1c145.4-24.3,177.4,177.8,344.3,79c79.5-52.4,60.2-58,126-99.6
			c55.4-35,84.5-25.3,112.4-7.6c27.2,17.3,53.1,42.2,81,79.3c7.9,10.5,16.7,20.2,26.4,29c220.7,200.4,271.4-457.5,475.2-23.4
			c20.3,41.4,75.2,122.9,125.4,113.7c67.1-12.3,104.2-98.3,128.7-150.1c181.9-357.9,246,235.3,449.1,65.1
			c69.3-63.7,53.8-75.4,114.6-117c6.9-4.8,14.3-8.6,22.2-11.3c119.6-40.7,200.5,210.1,367.6,129.1c73-39.8,54.2-54.8,117.4-82
			c117.1-42.8,199.6,71.1,321,61.5"/>
		<path class="st0" d="M3134.3,340.9c-113.1,1.6-159.4-56.6-255.8-66.8c-152.9-8.8-183.1,210.7-402.8,35.1
			c-10.4-9.1-32.1-26.9-58.9-41.7c-67.7-34.9-91.6-18.6-122.1,0.9c-29.1,18.6-82.8,72-84.6,73.8
			c-233.2,219.7-291.1-382.8-485.7-24.6c-28.4,51.2-80.2,119.3-138.5,115.9c-37.2-1.1-83.5-39.5-120.8-111.6
			c-196.6-363.3-253.6,226.7-481.1,29.9c-10.4-9.1-20.2-18.9-29.2-29.4C763.5,103,703,452.7,497,364.3
			c-67.5-31.6-60.2-52.1-134-80.1c-98.4-29.4-201.9,68.2-310.2,61"/>
		<path class="st0" d="M39.9,390.1c126.3-4.2,164-53.4,253.6-64.6c142.2-6.6,189.3,173.4,376.1,63.4c50.5-33.7,33.6-29.1,86.7-58.8
			c64.2-34,92.8-18.5,122-7C963,366.9,956,400.5,1025,427.8c160.1,64,237.7-235.4,364.3-140.6c66.6,53.9,92.4,118,138.5,152
			c34.4,25.4,80.6,27.1,117.5,5.4c56.9-33.5,88.9-101.7,125.1-136.8C1906.6,166.6,1995,468.4,2136.7,432
			c75.9-13.3,125.7-95.2,180.1-113.4c154.7-61.9,225.8,222,460.3,39.3c141.7-96.5,213.5,31.3,369.3,25.7"/>
		<path class="st0" d="M3160.1,427.7c0,0-8.8,0.8-25.3-0.4c-34.3,0.6-70.4-7.1-133.5-32.4c-231.6-92.7-215,98.2-403.8,65.5
			c-136-39.1-166-102.4-252-87.7c-72.3,12.4-111.3,69-147.3,82.6c-202.6,109.7-243.2-193.4-405.3-101
			c-88.5,54.6-109.9,134.4-209,132.5c-104.3-5.9-150.3-146.7-245.8-151c-107.5-0.2-189.3,212.8-353.7,121
			c-60-33.9-77.7-74.9-155-82.3c-86.2-10.8-146.8,63.8-231.5,87.4c-14.6,4-29.8,5.7-45,4.8c-172.9-9.1-159.7-160.5-405.6-54.6
			c-29.6,10.2-81.2,25.1-120.3,21.3"/>
		<path class="st0" d="M13.6,476.1C132.2,478,218,414.2,299.4,423c73.3,6.8,113.1,51.3,153.2,67.8c149.9,67.7,241.1-56.9,351.2-55.2
			c111-0.6,170.6,97.3,271.5,88.4c94-8.8,135.3-75.1,190.2-101.9c139.6-72.6,205.3,91.7,313.2,94.4c13,1.1,56.2,2.1,107.7-27.5
			c8.8-5.1,17.1-11.1,24.8-17.8c209.9-181,268.6,66.7,414.6,50.6c22.7-1.4,69.6-9.3,132.6-46.3c135.2-92.7,202.9-14.9,305.1,18.9
			c48.1,16,100,16.4,148.4,1.1c107.1-34,114.3-113.5,293.7-57.2c13.2,4.6,116.2,39.7,166.6,33.6"/>
		<path class="st0" d="M3186,514.4c0,0-3.9,0.1-11-0.1c-62.6-0.8-112.6-14.2-146.4-26.8c-11-4.1-22.3-7.5-33.8-10.2
			c-168.7-39.2-182.1,42.5-287.9,67.6c-22.3,5.2-45.2,7.1-68.1,5.7c-142.2-8.4-204.3-96.6-352.9-32.4c-28.1,14-94.4,45.9-147,47.5
			c-145.3,1.3-189.5-115.4-321.8-92.5c-17.9,3.2-35.3,8.6-51.8,16c-328.1,146-326-131-574.8,37.6c-68.4,38.2-104.6,41-139.7,40.1
			c-23.5-0.6-75.2-9.1-124.5-34.1c-169.9-95.7-250.7,27.8-397.2,22.1c-16.4-0.7-58.1-4.9-104.6-26.8c-41-20.8-39.8-23-65.6-37.2
			c-138.5-76.7-222.2,37.6-357.5,29.4"/>
		<path class="st1" d="M3106.7,492.3c-120.4-8.8-187.3,26.3-256.1,17.9c-32.4-2.4-74.1-9.7-121.8-27.4
			c-189.3-69.7-213.9,34.4-344.3,47.6c-102.1,3.2-177.8-62.6-242.4-58.9c-147.9-11.9-197.7,194.6-389,37
			c-19.3-13.1-40.7-22.7-63.3-28.4c-39.2-9.7-90-8.7-147.3,25.4c-243,195.1-238.3-144.9-519.3,5.7c-27.4,11.8-56.7,18.6-86.4,20.2
			c-185,3.2-134.3-138-456.2-22.7c-136.2,34.7-243.7-39-345.2-12"/>
		<path class="st1" d="M174,460c100.2-5.9,141.1,27.4,223.7,27.4c143.8,2.3,168.5-88.5,318.9-55c82.8,25.5,80.9,50.9,151.4,70.3
			c60.8,18.3,105.5,1.6,129.2-15.3c76.8-45.3,178.3-93.1,255.8-23.7c9.9,8.8,20.3,17.2,31,25c84.6,61.6,120,76.5,183.9,33.8
			c100.1-77.5,112.5-118,183.7-116.9c60.8,8.2,111,60.4,155.4,105.9c175.3,141,201.9-200.9,467.3-36.2
			c69.9,43.2,123.5,33.4,147.4,24.2c66.3-20.4,79.5-45.6,145.8-69.7c143.4-41.1,201.5,68.2,314.3,52c87.3-2.5,173.6-35.3,236.9-27.2
			"/>
		<path class="st1" d="M3130.1,416c-114.5,0-157.8,34.5-228.9,39.2c-180.6,5.8-202.4-169.1-434.7,0.2
			c-45.2,30.9-98.1,33.1-126.9,21.6c-93.6-35.4-93.6-75.9-171.4-90.7c-145.9-29.3-220.3,222.1-339.7,113.1
			c-76.9-71.6-93.2-156.9-186.8-163.2c-78,7.3-117.8,103.2-169.5,156.7c-149.7,154-209.7-240.2-446.7-55.3
			c-27,19.3-19.1,21.1-65.3,40.7c-53.7,17.4-77.4,6.3-106.6-4.5c-74.3-37.1-57.5-40.5-107.3-63.9C559.1,320,521.4,517.7,309,442.8
			c-29.5-8.8-99.2-27.3-146.5-21.3"/>
		<path class="st1" d="M151,382.9c78.8-6.8,194.3,55.5,258.8,49.7c66.4,0.5,122.6-53.1,166.2-69.2c154.3-60.4,207.6,75.1,309.3,97.5
			c34,7.9,58.1,6.6,111.2-31c165.8-165.4,208.3-67.5,348.4,52.3c72.2,56.6,116.3,18.1,192-121.4c26.8-51.7,69.8-99.4,112-91.3
			c92.9,23.6,127.4,139.5,180.1,202.6c47.1,60.9,93.3,45.7,169.8-28.1c74.1-96.7,156.2-156.7,256.5-51.3
			c24.3,25.5,45.5,44.2,72.6,55.7c46.8,19.9,71.7,8.8,96.6,1.4c56.1-19.6,130.5-84.3,143.2-88.1c141.6-67.6,221.1,75.1,313.5,64.8
			c94.5,0.5,165.5-50.8,259.6-49.8"/>
		<path class="st1" d="M3152.8,338.9c-139.7-0.4-235.3,114.4-354.6,32.8c-26.8-17.5-46.9-46-116.2-64.4
			c-142.8-31.3-226,187.2-345.1,117.6c-73.1-49.3-70.5-74.5-120.6-104.9c-194-136.7-274.5,389.2-433,53.1
			c-18.1-40.3-78.8-151-142.7-144c-88.8,18.5-129.7,165.6-183.6,227.4c-134.8,155.5-215.4-300.8-415-109.5
			c-44.9,46.4-28.9,36.7-69.8,68.7c-57,41-78.1,24-96.4,19.6c-54.1-17.8-128-90.8-142.2-96c-176.9-105.3-222.4,95.2-359.5,62
			c-88.4-11.2-150.9-67.8-235.3-57.9"/>
		<path class="st1" d="M128,304.4c155.9,6.8,235.5,133.3,364.7,35.1c28.5-22.2,32.9-39.6,93.4-63.4
			c150.3-52.5,247.4,201.1,357,130.9c71.2-47.6,89.4-106.3,139.7-132.2c164-110,247.9,313.8,369.9,161.5
			c71.8-88.3,104.6-238.9,195.7-242.2c86.8,14.4,130.6,162.8,179.9,230.4c131.9,187.2,223.1-303.6,407.6-134.4
			c64,58.6,56.8,76.6,99.3,106.9c143.4,99,228.8-237.1,425.7-95.4c171.1,168.7,240.8-11,403.3-1.4"/>
		<path class="st1" d="M3173.3,266.1c-122,3.7-135.6,52.9-243.7,72.1c-145.4,24.3-177.4-177.8-344.3-79c-79.5,52.4-56.2,54-126,99.6
			c-65.7,40.1-86.2,27.7-112.4,7.6c-26.9-20.6-60.7-52.7-81.2-79.5c-7.8-10.3-16.4-19.8-25.9-28.5
			c-221-201.4-271.7,457.4-475.6,23.1c-20.2-41.4-75.2-122.9-125.4-113.7c-66.5,15-104.2,98.3-128.7,150.1
			c-181.9,357.9-246-235.3-449.1-65.1c-71.6,65.9-52.7,76.2-121,121.3c-128.5,70.2-209.1-206.6-383.4-122
			c-73,39.9-54.3,54.8-117.4,82c-117.1,42.7-199.6-71.2-321-61.6"/>
		<path class="st1" d="M104.4,228.5c113.1-1.6,159.4,56.6,255.8,66.8c153,8.8,183.1-210.7,402.8-35.1c18.2,15.9,37.9,29.9,59,41.7
			c67.7,34.9,88.1,22.3,119.9,5.1c18.2-6.5,80-69.6,77.7-69.9c1.1-1.3,2.5-2.9,4.6-5.2c1.3-1.5,2.7-2.8,4.5-4.7
			c233.2-219.8,291.1,382.8,485.7,24.6c28.3-51.2,80.2-119.3,138.5-115.9c37.2,1.1,83.5,39.5,120.8,111.6
			c202.9,375,257.1-265.8,503.7-8.3c196.5,235.3,256-123.5,464.4-34.1c67.5,31.6,60.2,52.1,134,80.1c98.4,29.4,201.9-68.2,310.2-61"
			/>
		<path class="st1" d="M3198.8,179.3c-126.3,4.2-164,53.4-253.5,64.6c-142.2,6.6-189.3-173.4-376.1-63.4
			c-50.5,33.7-33.6,29.1-86.6,58.8c-64.2,34-92.8,18.5-122,7c-84.9-43.8-77.8-77.5-146.9-104.7c-160.1-64-237.7,235.4-364.3,140.6
			c-92.1-74.5-106.1-168.6-204-175.6c-91.9,12.5-131.1,110.4-177.2,155C1332.1,402.8,1243.7,101,1102,137.4
			c-75.9,13.3-125.7,95.2-180.1,113.4c-154.7,61.9-225.7-222-460.3-39.3C319.9,308,248,180.2,92.3,185.8"/>
		<path class="st1" d="M78.6,141.7c0,0,8.8-0.8,25.3,0.4c34.3-0.6,125.8,26.8,133.5,32.4c233.1,88.9,215-98.2,403.8-65.5
			c136,39.1,166.5,105,252,87.7c62-5.9,111.3-68.9,147.3-82.6c202.6-109.7,243.2,193.4,405.3,101c88.5-54.6,109.9-134.4,209-132.5
			c104.3,5.9,150.3,146.8,245.8,151c107.5,0.2,189.3-212.8,353.7-121c60,33.9,77.7,74.9,155,82.2c94.5,11.8,158.1-78.8,256.4-92.6
			c194.4-2.1,170.6,164.8,425.7,55c29.6-10.2,81.2-25.1,120.3-21.3"/>
		<path class="st1" d="M3225.1,93.3c-118.6-1.9-204.5,61.9-285.9,53.1c-73.3-6.8-113.1-51.3-153.2-67.8
			c-149.9-67.7-241.1,56.9-351.2,55.2c-111,0.6-170.6-97.2-271.5-88.4c-94,8.8-135.3,75.1-190.2,101.9
			c-139.6,72.6-205.3-91.7-313.3-94.4c-14.4-1.3-65.5-2.3-123.8,37.7c-216.9,195.4-275.2-59.3-423.3-43
			c-22.7,1.4-69.6,9.4-132.6,46.3c-168,115.1-231.8-32.9-387-32.7C416.9,76.1,443.7,197.2,233,131.1
			c-13.3-4.6-116.2-39.7-166.6-33.6"/>
		<path class="st1" d="M52.7,55c0,0,3.8-0.1,11,0.1C134.1,56,188.6,72.9,222,86.6C433.1,144,421.5,29.2,573.4,18.3
			c161.5-2.1,221.9,101.1,379.3,33c28.1-14,94.4-45.9,147-47.6c158.6-1.5,196.7,137.7,360.2,82.6
			c341.7-159.7,336.1,127.2,588.2-43.7c68.4-38.2,118.2-43.6,139.7-40.1c23.4,2,75.2,9.1,124.5,34.1
			c169.9,95.7,250.7-27.8,397.2-22.2c16.4,0.8,58.1,4.9,104.6,26.9c41,20.8,45.3,29.3,65.6,37.2c145.7,61.8,222.2-37.6,357.5-29.4"
			/>
	</g>
</g>
</svg>
